<?xml version="1.0" encoding="UTF-8" standalone="no"?>
<!DOCTYPE svg PUBLIC "-//W3C//DTD SVG 1.1//EN"
 "http://www.w3.org/Graphics/SVG/1.1/DTD/svg11.dtd">
<!-- Generated by graphviz version 2.38.0 (20140413.2041)
 -->
<!-- Title: dependencies Pages: 1 -->
<svg width="576pt" height="716pt"
 viewBox="0.00 0.00 576.00 716.08" xmlns="http://www.w3.org/2000/svg" xmlns:xlink="http://www.w3.org/1999/xlink">
<g id="graph0" class="graph" transform="scale(0.983623 0.983623) rotate(0) translate(4 724)">
<title>dependencies</title>
<polygon fill="white" stroke="none" points="-4,4 -4,-724 581.59,-724 581.59,4 -4,4"/>
<!-- setup.py -->
<g id="node1" class="node"><title>setup.py</title>
<ellipse fill="lightgrey" stroke="black" cx="130.59" cy="-51.4286" rx="27" ry="18"/>
<text text-anchor="middle" x="130.59" y="-49.8286" font-family="Times,serif" font-size="7.00">setup.py</text>
</g>
<!-- test -->
<g id="node2" class="node"><title>test</title>
<ellipse fill="lightgrey" stroke="black" cx="130.59" cy="-205.429" rx="27" ry="18"/>
<text text-anchor="middle" x="130.59" y="-203.829" font-family="Times,serif" font-size="7.00">test</text>
</g>
<!-- test/IntegrationTest.py -->
<g id="node3" class="node"><title>test/IntegrationTest.py</title>
<ellipse fill="lightgrey" stroke="black" cx="130.59" cy="-514.429" rx="46.1546" ry="18"/>
<text text-anchor="middle" x="130.59" y="-512.829" font-family="Times,serif" font-size="7.00">test/IntegrationTest.py</text>
</g>
<!-- xecd_rates_client -->
<g id="node4" class="node"><title>xecd_rates_client</title>
<ellipse fill="lightgrey" stroke="black" cx="470.59" cy="-437.429" rx="37.9093" ry="18"/>
<text text-anchor="middle" x="470.59" y="-435.829" font-family="Times,serif" font-size="7.00">xecd_rates_client</text>
</g>
<!-- test/IntegrationTest.py&#45;&gt;xecd_rates_client -->
<g id="edge1" class="edge"><title>test/IntegrationTest.py&#45;&gt;xecd_rates_client</title>
<path fill="none" stroke="black" d="M171.025,-505.445C234.665,-490.947 359.565,-462.494 425.852,-447.393"/>
<polygon fill="black" stroke="black" points="426.996,-450.722 435.969,-445.088 425.441,-443.897 426.996,-450.722"/>
</g>
<!-- test/UnitTest.py -->
<g id="node5" class="node"><title>test/UnitTest.py</title>
<ellipse fill="lightgrey" stroke="black" cx="130.59" cy="-360.429" rx="36.0616" ry="18"/>
<text text-anchor="middle" x="130.59" y="-358.829" font-family="Times,serif" font-size="7.00">test/UnitTest.py</text>
</g>
<!-- test/UnitTest.py&#45;&gt;xecd_rates_client -->
<g id="edge2" class="edge"><title>test/UnitTest.py&#45;&gt;xecd_rates_client</title>
<path fill="none" stroke="black" d="M163.999,-367.812C224.979,-381.703 356.824,-411.739 425.691,-427.428"/>
<polygon fill="black" stroke="black" points="425.253,-430.918 435.78,-429.726 426.808,-424.092 425.253,-430.918"/>
</g>
<!-- test/data -->
<g id="node6" class="node"><title>test/data</title>
<ellipse fill="lightgrey" stroke="black" cx="130.59" cy="-668.429" rx="27" ry="18"/>
<text text-anchor="middle" x="130.59" y="-666.829" font-family="Times,serif" font-size="7.00">test/data</text>
</g>
</g>
</svg>
